<svg width="267" height="33" viewBox="0 0 267 33" fill="none" xmlns="http://www.w3.org/2000/svg">
<path d="M26.125 32H19.3794L7.22852 11.2578V32H0.922363V0.491211H7.66797L19.8188 21.2554V0.491211H26.125V32ZM62.8633 16.3774C62.8633 17.8716 62.6655 19.3145 62.27 20.7061C61.8892 22.083 61.3472 23.3794 60.644 24.5952C59.9409 25.7964 59.0913 26.895 58.0952 27.8911C57.0991 28.8872 56.0005 29.7441 54.7993 30.4619C53.5981 31.165 52.3018 31.707 50.9102 32.0879C49.5186 32.4834 48.0757 32.6812 46.5815 32.6812C45.0874 32.6812 43.6445 32.4834 42.2529 32.0879C40.876 31.707 39.5796 31.165 38.3638 30.4619C37.1626 29.7441 36.064 28.8872 35.0679 27.8911C34.0718 26.895 33.2148 25.7964 32.4971 24.5952C31.7939 23.3794 31.2446 22.083 30.8491 20.7061C30.4683 19.3145 30.2778 17.8716 30.2778 16.3774C30.2778 14.8833 30.4683 13.4404 30.8491 12.0488C31.2446 10.6572 31.7939 9.36084 32.4971 8.15967C33.2148 6.9585 34.0718 5.85986 35.0679 4.86377C36.064 3.86768 37.1626 3.01807 38.3638 2.31494C39.5796 1.61182 40.876 1.06982 42.2529 0.688965C43.6445 0.293457 45.0874 0.0957031 46.5815 0.0957031C48.0757 0.0957031 49.5186 0.293457 50.9102 0.688965C52.3018 1.06982 53.5981 1.61182 54.7993 2.31494C56.0005 3.01807 57.0991 3.86768 58.0952 4.86377C59.0913 5.85986 59.9409 6.9585 60.644 8.15967C61.3472 9.36084 61.8892 10.6572 62.27 12.0488C62.6655 13.4404 62.8633 14.8833 62.8633 16.3774ZM56.6011 16.3774C56.6011 15.0005 56.3374 13.7041 55.8101 12.4883C55.2827 11.2578 54.5649 10.1958 53.6567 9.30225C52.7632 8.39404 51.7012 7.67627 50.4707 7.14893C49.2549 6.62158 47.9585 6.35791 46.5815 6.35791C45.1899 6.35791 43.8862 6.62158 42.6704 7.14893C41.4546 7.67627 40.3926 8.39404 39.4844 9.30225C38.5762 10.1958 37.8584 11.2578 37.3311 12.4883C36.8037 13.7041 36.54 15.0005 36.54 16.3774C36.54 17.7544 36.8037 19.0508 37.3311 20.2666C37.8584 21.4678 38.5762 22.5225 39.4844 23.4307C40.3926 24.3389 41.4546 25.0566 42.6704 25.584C43.8862 26.1113 45.1899 26.375 46.5815 26.375C47.9585 26.375 49.2549 26.1113 50.4707 25.584C51.7012 25.0566 52.7632 24.3389 53.6567 23.4307C54.5649 22.5225 55.2827 21.4678 55.8101 20.2666C56.3374 19.0508 56.6011 17.7544 56.6011 16.3774ZM98.2832 22.9912C98.2832 24.2949 98.0342 25.5254 97.5361 26.6826C97.0527 27.8252 96.3789 28.8286 95.5146 29.6929C94.665 30.5425 93.6616 31.2163 92.5044 31.7144C91.3618 32.1978 90.1387 32.4395 88.835 32.4395C87.6631 32.4395 86.5352 32.2344 85.4512 31.8242C84.3818 31.4141 83.415 30.8135 82.5508 30.0225C81.6865 30.8135 80.7124 31.4141 79.6284 31.8242C78.5444 32.2344 77.4165 32.4395 76.2446 32.4395C74.9409 32.4395 73.7104 32.1978 72.5532 31.7144C71.4106 31.2163 70.4072 30.5425 69.543 29.6929C68.6934 28.8286 68.0195 27.8252 67.5215 26.6826C67.0381 25.5254 66.7964 24.2949 66.7964 22.9912V0.491211H73.1025V22.9912C73.1025 23.4307 73.1831 23.8481 73.3442 24.2437C73.5054 24.6245 73.7251 24.9614 74.0034 25.2544C74.2964 25.5327 74.6333 25.7524 75.0142 25.9136C75.395 26.0747 75.8052 26.1553 76.2446 26.1553C76.6841 26.1553 77.0942 26.0747 77.4751 25.9136C77.856 25.7524 78.1855 25.5327 78.4639 25.2544C78.7568 24.9614 78.9839 24.6245 79.145 24.2437C79.3062 23.8481 79.3867 23.4307 79.3867 22.9912V0.491211H85.6929V22.9912C85.6929 23.4307 85.7734 23.8481 85.9346 24.2437C86.0957 24.6245 86.3154 24.9614 86.5938 25.2544C86.8867 25.5327 87.2236 25.7524 87.6045 25.9136C87.9854 26.0747 88.3955 26.1553 88.835 26.1553C89.2744 26.1553 89.6846 26.0747 90.0654 25.9136C90.4463 25.7524 90.7759 25.5327 91.0542 25.2544C91.3472 24.9614 91.5742 24.6245 91.7354 24.2437C91.9111 23.8481 91.999 23.4307 91.999 22.9912V0.491211H98.2832V22.9912ZM110.236 32H103.93V0.491211H125.991V6.79736H110.236V13.1035H119.685V19.4097H110.236V32ZM154.094 19.4097C154.094 21.1528 153.764 22.7935 153.105 24.3315C152.446 25.855 151.545 27.188 150.402 28.3306C149.26 29.4585 147.919 30.3521 146.381 31.0112C144.858 31.6704 143.225 32 141.481 32C139.738 32 138.098 31.6704 136.56 31.0112C135.036 30.3521 133.703 29.4585 132.561 28.3306C131.433 27.188 130.539 25.855 129.88 24.3315C129.221 22.7935 128.891 21.1528 128.891 19.4097V0.491211H135.175V19.4097C135.175 20.2739 135.336 21.0869 135.659 21.8486C135.996 22.6104 136.45 23.2769 137.021 23.8481C137.592 24.4194 138.259 24.8735 139.021 25.2104C139.797 25.5327 140.617 25.6938 141.481 25.6938C142.346 25.6938 143.159 25.5327 143.92 25.2104C144.697 24.8735 145.371 24.4194 145.942 23.8481C146.513 23.2769 146.96 22.6104 147.282 21.8486C147.619 21.0869 147.788 20.2739 147.788 19.4097V0.491211H154.094V19.4097ZM172.792 32H166.508V6.79736H157.038V0.491211H182.241V6.79736H172.792V32ZM210.432 19.4097C210.432 21.1528 210.102 22.7935 209.443 24.3315C208.784 25.855 207.883 27.188 206.74 28.3306C205.598 29.4585 204.257 30.3521 202.719 31.0112C201.196 31.6704 199.562 32 197.819 32C196.076 32 194.436 31.6704 192.897 31.0112C191.374 30.3521 190.041 29.4585 188.898 28.3306C187.771 27.188 186.877 25.855 186.218 24.3315C185.559 22.7935 185.229 21.1528 185.229 19.4097V0.491211H191.513V19.4097C191.513 20.2739 191.674 21.0869 191.997 21.8486C192.333 22.6104 192.788 23.2769 193.359 23.8481C193.93 24.4194 194.597 24.8735 195.358 25.2104C196.135 25.5327 196.955 25.6938 197.819 25.6938C198.684 25.6938 199.497 25.5327 200.258 25.2104C201.035 24.8735 201.708 24.4194 202.28 23.8481C202.851 23.2769 203.298 22.6104 203.62 21.8486C203.957 21.0869 204.125 20.2739 204.125 19.4097V0.491211H210.432V19.4097ZM222.209 6.79736V19.4097H228.515C229.379 19.4097 230.192 19.2485 230.954 18.9263C231.716 18.5894 232.382 18.1353 232.954 17.564C233.525 16.9927 233.972 16.3262 234.294 15.5645C234.631 14.7881 234.799 13.9678 234.799 13.1035C234.799 12.2393 234.631 11.4263 234.294 10.6646C233.972 9.88818 233.525 9.21436 232.954 8.64307C232.382 8.07178 231.716 7.625 230.954 7.30273C230.192 6.96582 229.379 6.79736 228.515 6.79736H222.209ZM222.209 32H215.903V0.491211H228.515C229.672 0.491211 230.786 0.64502 231.855 0.952637C232.924 1.24561 233.92 1.67041 234.843 2.22705C235.781 2.76904 236.63 3.42822 237.392 4.20459C238.168 4.96631 238.828 5.81592 239.37 6.75342C239.926 7.69092 240.351 8.69434 240.644 9.76367C240.952 10.833 241.105 11.9463 241.105 13.1035C241.105 14.1875 240.966 15.2422 240.688 16.2676C240.424 17.293 240.036 18.2671 239.523 19.1899C239.025 20.1128 238.41 20.9624 237.678 21.7388C236.945 22.5151 236.125 23.189 235.217 23.7603L238.71 32H232.009L229.262 25.6499L222.209 25.6938V32ZM266.857 32H245.258V0.491211H266.857V6.79736H251.564V13.1035H261.914V19.4097H251.564V25.6938H266.857V32Z" fill="white"/>
</svg>
