<svg width="299" height="256" viewBox="0 0 299 256" fill="none" xmlns="http://www.w3.org/2000/svg">
<path d="M136.448 86.1305L160.866 40.4014L160.644 109.883C152.652 116.099 156.648 124.09 160.644 126.532V198.899C155.139 200.853 136.448 199.787 136.448 198.899V170.263C147.103 163.337 140.221 154.28 136.448 152.504V86.1305Z" fill="#9400A8"/>
<path d="M192.832 17.9809L181.733 0L169.301 23.9745V109.217C179.291 116.099 174.629 123.868 169.301 126.976V198.455C178.625 197.123 189.502 194.46 192.832 192.24V97.8957C183.775 90.437 189.058 83.3927 192.832 80.8028V17.9809Z" fill="#C100DB"/>
<path d="M199.935 80.3589V31.9659L224.354 70.5915V130.972C215.918 137.631 220.136 145.179 224.354 147.843V175.813C221.246 179.809 206.817 187.578 199.935 189.132V97.6738C210.591 92.5681 203.709 81.6908 199.935 80.3589Z" fill="#C100DB"/>
<path d="M233.233 130.972V84.7986L263.423 134.301C258.984 144.735 243.223 162.272 233.233 169.375V147.843C242.29 143.758 238.783 133.857 233.233 130.972Z" fill="#E842FF"/>
<g filter="url(#filter0_d_3_126)">
<path d="M64.0802 123.646V91.9021L35 132.969C39.8837 144.291 53.8688 159.83 64.0802 168.265V141.405C54.9787 133.413 59.8624 127.42 64.0802 123.646Z" fill="#3A0042"/>
</g>
<path d="M72.9596 123.202V79.0269L98.044 45.5071V94.5659C89.6085 100.56 91.3844 110.549 98.044 112.769V188.244C91.6064 186.912 76.9553 178.921 72.9596 174.703V141.627C82.949 135.411 78.5092 125.866 72.9596 123.202Z" fill="#51005C"/>
<path d="M128.9 84.7986L105.813 47.9489V95.0099C116.247 103.223 109.809 108.995 105.813 112.103V191.796C108.655 194.104 122.388 197.049 128.9 198.233V169.375C120.021 162.449 125.2 155.538 128.9 152.948V84.7986Z" fill="#660074"/>
<path d="M27.6909 194.293L23.1951 189.264L30.5608 166.381L15.0969 180.205L10.894 175.504L34.3847 154.504L38.8805 159.533L31.4985 182.43L46.9787 168.592L51.1816 173.293L27.6909 194.293Z" fill="#FDF0FE"/>
<path d="M71.4296 208.092C70.5724 209.316 69.5825 210.384 68.4602 211.297C67.3582 212.206 66.1705 212.957 64.8971 213.549C63.632 214.13 62.3058 214.542 60.9185 214.786C59.5312 215.031 58.1397 215.102 56.7441 215.001C55.3568 214.888 53.9841 214.588 52.6258 214.101C51.2591 213.627 49.9639 212.961 48.7401 212.104C47.5164 211.246 46.4481 210.257 45.5352 209.134C44.626 208.032 43.8752 206.845 43.2828 205.571C42.7108 204.294 42.3026 202.962 42.0583 201.575C41.814 200.187 41.7424 198.796 41.8437 197.4C41.9654 196.001 42.2593 194.624 42.7254 193.269C43.2119 191.911 43.8837 190.62 44.741 189.396C45.5983 188.172 46.5821 187.1 47.6924 186.179C48.8148 185.266 50.0085 184.519 51.2735 183.939C52.5506 183.367 53.8828 182.959 55.2701 182.714C56.6574 182.47 58.0447 182.405 59.4319 182.518C60.8312 182.639 62.2039 182.939 63.5502 183.417C64.9169 183.892 66.2121 184.558 67.4359 185.415C68.6596 186.272 69.7279 187.262 70.6408 188.384C71.562 189.495 72.3128 190.683 72.8932 191.948C73.4736 193.213 73.886 194.539 74.1303 195.926C74.3746 197.314 74.4402 198.701 74.3269 200.088C74.2136 201.475 73.9137 202.848 73.4272 204.206C72.9527 205.573 72.2869 206.868 71.4296 208.092ZM66.3006 204.499C67.0907 203.371 67.6185 202.158 67.8842 200.86C68.1582 199.549 68.1797 198.268 67.9485 197.015C67.7377 195.758 67.2797 194.561 66.5745 193.423C65.8812 192.294 64.9707 191.334 63.8429 190.544C62.7032 189.746 61.4841 189.214 60.1858 188.948C58.8874 188.682 57.6058 188.661 56.3408 188.884C55.0843 189.094 53.8871 189.552 52.7492 190.258C51.6197 190.951 50.66 191.861 49.87 192.989C49.0799 194.117 48.5521 195.33 48.2864 196.628C48.0292 197.915 48.012 199.19 48.2347 200.455C48.4575 201.72 48.9155 202.917 49.6087 204.047C50.302 205.176 51.2185 206.14 52.3583 206.939C53.486 207.729 54.6991 208.257 55.9975 208.522C57.3078 208.796 58.5895 208.818 59.8424 208.587C61.1073 208.364 62.3003 207.912 63.4214 207.231C64.5509 206.537 65.5106 205.627 66.3006 204.499Z" fill="#FDF0FE"/>
<path d="M104.994 229.01C104.528 230.227 103.855 231.287 102.976 232.189C102.115 233.083 101.127 233.779 100.01 234.276C98.9131 234.766 97.7349 235.036 96.4761 235.086C95.2362 235.129 94.0076 234.917 92.7903 234.45C91.696 234.031 90.7162 233.435 89.8509 232.665C88.9992 231.899 88.3114 230.992 87.7875 229.944C86.6974 230.373 85.5729 230.585 84.4139 230.58C83.2549 230.575 82.1283 230.363 81.0341 229.944C79.8167 229.477 78.7543 228.811 77.8468 227.945C76.9581 227.071 76.2624 226.083 75.7595 224.98C75.2755 223.869 75.0055 222.691 74.9494 221.446C74.9122 220.192 75.127 218.957 75.5936 217.74L83.6471 196.73L89.5354 198.987L81.482 219.997C81.3247 220.407 81.2505 220.826 81.2594 221.253C81.2735 221.666 81.3581 222.059 81.5131 222.432C81.687 222.797 81.923 223.123 82.2209 223.41C82.5189 223.697 82.873 223.919 83.2834 224.076C83.6937 224.233 84.1055 224.305 84.5188 224.291C84.9321 224.276 85.3185 224.189 85.678 224.029C86.0564 223.86 86.389 223.627 86.6758 223.329C86.9679 223.017 87.1925 222.656 87.3498 222.246L95.4033 201.237L101.292 203.494L93.2382 224.503C93.0809 224.914 93.0067 225.332 93.0156 225.759C93.0297 226.172 93.1143 226.566 93.2693 226.939C93.4432 227.304 93.6792 227.629 93.9771 227.916C94.2751 228.203 94.6292 228.425 95.0396 228.582C95.4499 228.74 95.8617 228.811 96.275 228.797C96.6883 228.783 97.0747 228.696 97.4342 228.535C97.8126 228.367 98.1452 228.133 98.432 227.835C98.7377 227.529 98.9692 227.171 99.1265 226.76L107.18 205.751L113.048 208L104.994 229.01Z" fill="#FDF0FE"/>
<path d="M119.61 240.809L113.375 239.864L118.101 208.711L139.912 212.02L138.966 218.255L123.39 215.892L122.444 222.127L131.786 223.544L130.84 229.779L121.498 228.362L119.61 240.809Z" fill="#FDF0FE"/>
<path d="M169.351 229.995C169.434 231.737 169.182 233.391 168.596 234.958C168.01 236.511 167.173 237.885 166.085 239.081C164.997 240.261 163.701 241.217 162.195 241.948C160.705 242.678 159.089 243.085 157.348 243.167C155.606 243.249 153.952 242.998 152.385 242.412C150.832 241.825 149.458 240.996 148.263 239.923C147.083 238.835 146.127 237.546 145.397 236.055C144.666 234.55 144.259 232.926 144.177 231.185L143.284 212.288L149.561 211.991L150.454 230.889C150.495 231.752 150.694 232.556 151.052 233.302C151.425 234.047 151.91 234.691 152.507 235.235C153.105 235.779 153.792 236.201 154.569 236.501C155.36 236.787 156.187 236.909 157.05 236.868C157.913 236.827 158.718 236.628 159.463 236.27C160.223 235.897 160.875 235.411 161.418 234.814C161.962 234.216 162.377 233.529 162.663 232.753C162.963 231.976 163.093 231.156 163.052 230.293L162.159 211.396L168.458 211.098L169.351 229.995Z" fill="#FDF0FE"/>
<path d="M194.78 237.367L188.688 238.91L182.503 214.478L173.322 216.802L171.774 210.689L196.206 204.503L197.754 210.617L188.595 212.936L194.78 237.367Z" fill="#FDF0FE"/>
<path d="M230.617 209.435C231.373 211.006 231.788 212.627 231.861 214.299C231.928 215.957 231.694 217.549 231.161 219.074C230.62 220.586 229.8 221.973 228.701 223.234C227.614 224.489 226.285 225.494 224.715 226.25C223.144 227.007 221.523 227.421 219.851 227.495C218.192 227.562 216.604 227.335 215.085 226.814C213.573 226.274 212.19 225.461 210.935 224.374C209.674 223.274 208.665 221.939 207.909 220.368L199.702 203.322L205.364 200.596L213.571 217.642C213.946 218.421 214.444 219.083 215.065 219.63C215.699 220.17 216.397 220.574 217.159 220.841C217.922 221.107 218.72 221.227 219.552 221.201C220.391 221.154 221.2 220.943 221.979 220.569C222.758 220.194 223.42 219.696 223.967 219.075C224.52 218.435 224.93 217.733 225.197 216.971C225.464 216.208 225.578 215.414 225.538 214.588C225.511 213.755 225.31 212.95 224.935 212.171L216.728 195.125L222.41 192.39L230.617 209.435Z" fill="#FDF0FE"/>
<path d="M236.035 190.543L243.751 200.52L248.739 196.662C249.423 196.133 249.967 195.508 250.372 194.787C250.769 194.055 251.018 193.288 251.121 192.487C251.223 191.685 251.169 190.885 250.958 190.085C250.749 189.265 250.381 188.513 249.852 187.829C249.323 187.145 248.693 186.605 247.96 186.209C247.23 185.792 246.465 185.532 245.663 185.43C244.862 185.327 244.061 185.382 243.262 185.593C242.453 185.792 241.707 186.156 241.023 186.685L236.035 190.543ZM251.453 210.479L246.465 214.337L227.188 189.413L237.165 181.697C238.08 180.989 239.055 180.429 240.089 180.019C241.114 179.596 242.162 179.323 243.233 179.198C244.306 179.054 245.381 179.055 246.459 179.203C247.539 179.331 248.58 179.6 249.582 180.01C250.596 180.411 251.546 180.945 252.432 181.611C253.33 182.269 254.132 183.056 254.84 183.971C255.503 184.829 256.039 185.748 256.446 186.729C256.865 187.702 257.153 188.71 257.312 189.753C257.483 190.788 257.516 191.837 257.412 192.899C257.307 193.961 257.071 194.996 256.702 196.003L264.506 200.384L259.205 204.484L253.148 201.141L247.595 205.491L251.453 210.479Z" fill="#FDF0FE"/>
<path d="M288.238 175L274.082 191.313L250.284 170.662L264.439 154.349L269.202 158.482L259.179 170.033L263.942 174.166L270.725 166.349L275.488 170.482L268.705 178.299L273.452 182.417L283.475 170.867L288.238 175Z" fill="#FDF0FE"/>
<defs>
<filter id="filter0_d_3_126" x="31" y="91.9021" width="37.0802" height="84.3631" filterUnits="userSpaceOnUse" color-interpolation-filters="sRGB">
<feFlood flood-opacity="0" result="BackgroundImageFix"/>
<feColorMatrix in="SourceAlpha" type="matrix" values="0 0 0 0 0 0 0 0 0 0 0 0 0 0 0 0 0 0 127 0" result="hardAlpha"/>
<feOffset dy="4"/>
<feGaussianBlur stdDeviation="2"/>
<feComposite in2="hardAlpha" operator="out"/>
<feColorMatrix type="matrix" values="0 0 0 0 0 0 0 0 0 0 0 0 0 0 0 0 0 0 0.25 0"/>
<feBlend mode="normal" in2="BackgroundImageFix" result="effect1_dropShadow_3_126"/>
<feBlend mode="normal" in="SourceGraphic" in2="effect1_dropShadow_3_126" result="shape"/>
</filter>
</defs>
</svg>
